# xmcd
#
# Track frame offsets:
# 150
# 16328
# 34630
# 53768
# 73952
# 92209
# 110629
# 128084
# 147306
# 167676
#
# Disc length: 2447 seconds
#
#
# Revision: 0
# Processed by: cddbd v1.4PL0 Copyright (c) Steve Scherf et al.
# Submitted via: FreeRIP 2.35 
#
DISCID=8a098d0a
DTITLE=Benee Bondi - Let it Rain
DYEAR=2002
DGENRE=Pop
TTITLE0=Jesus Christ is lord
TTITLE1=Let it rain
TTITLE2=Run another day
TTITLE3=Make me your instrument
TTITLE4=Blessed assurance
TTITLE5=We will rise again
TTITLE6=I can do all things
TTITLE7=I believe
TTITLE8=Be still and hear my voice
TTITLE9=the last dance but not the last song
EXTD=
EXTT0=
EXTT1=
EXTT2=
EXTT3=
EXTT4=
EXTT5=
EXTT6=
EXTT7=
EXTT8=
EXTT9=
PLAYORDER=
